<svg width="170" height="38" viewBox="0 0 170 38" fill="none" xmlns="http://www.w3.org/2000/svg">
<path d="M170 28C170 30.142 169.579 31.9575 168.737 33.4468C167.894 34.936 166.754 36.0672 165.316 36.8403C163.884 37.6134 162.277 38 160.495 38C158.707 38 157.097 37.6103 155.665 36.8308C154.233 36.0513 153.096 34.9202 152.254 33.4373C151.418 31.948 151 30.1356 151 28C151 25.858 151.418 24.0425 152.254 22.5532C153.096 21.064 154.233 19.9328 155.665 19.1597C157.097 18.3866 158.707 18 160.495 18C162.277 18 163.884 18.3866 165.316 19.1597C166.754 19.9328 167.894 21.064 168.737 22.5532C169.579 24.0425 170 25.858 170 28ZM165.082 28C165.082 26.7326 164.898 25.6616 164.528 24.7871C164.166 23.9125 163.641 23.2503 162.954 22.8004C162.274 22.3504 161.454 22.1255 160.495 22.1255C159.543 22.1255 158.723 22.3504 158.036 22.8004C157.35 23.2503 156.821 23.9125 156.452 24.7871C156.089 25.6616 155.908 26.7326 155.908 28C155.908 29.2674 156.089 30.3384 156.452 31.2129C156.821 32.0875 157.35 32.7497 158.036 33.1996C158.723 33.6496 159.543 33.8745 160.495 33.8745C161.454 33.8745 162.274 33.6496 162.954 33.1996C163.641 32.7497 164.166 32.0875 164.528 31.2129C164.898 30.3384 165.082 29.2674 165.082 28Z" fill="white"/>
<path d="M134 21.9258V18H150V21.9258H144.26V38H139.749V21.9258H134Z" fill="white"/>
<path d="M117 38V18H124.966C126.41 18 127.656 18.293 128.704 18.8789C129.759 19.4583 130.572 20.2689 131.143 21.3105C131.714 22.3457 132 23.5501 132 24.9238C132 26.304 131.708 27.5117 131.124 28.5469C130.547 29.5755 129.721 30.373 128.648 30.9395C127.574 31.5059 126.3 31.7891 124.825 31.7891H119.91V27.9805H123.959C124.662 27.9805 125.249 27.8535 125.719 27.5996C126.196 27.3457 126.557 26.9909 126.802 26.5352C127.047 26.0729 127.169 25.5358 127.169 24.9238C127.169 24.3053 127.047 23.7715 126.802 23.3223C126.557 22.8665 126.196 22.515 125.719 22.2676C125.242 22.0202 124.655 21.8965 123.959 21.8965H121.661V38H117Z" fill="white"/>
<path d="M96 18H101.28L105.414 26.3691H105.586L109.72 18H115L107.849 31.3203V38H103.151V31.3203L96 18Z" fill="white"/>
<path d="M80 38V18H88.1395C89.6148 18 90.888 18.2702 91.9591 18.8105C93.0367 19.3444 93.8673 20.1126 94.451 21.1152C95.0347 22.1113 95.3265 23.293 95.3265 24.6602C95.3265 26.0469 95.0283 27.2253 94.4317 28.1953C93.8352 29.1589 92.9886 29.8945 91.8918 30.4023C90.7949 30.9036 89.4961 31.1543 87.9952 31.1543H82.8479V27.3457H87.11C87.8284 27.3457 88.4281 27.2513 88.9092 27.0625C89.3967 26.8672 89.7655 26.5742 90.0156 26.1836C90.2658 25.7865 90.3909 25.2786 90.3909 24.6602C90.3909 24.0417 90.2658 23.5306 90.0156 23.127C89.7655 22.7168 89.3967 22.4108 88.9092 22.209C88.4217 22.0007 87.822 21.8965 87.11 21.8965H84.7625V38H80ZM91.0932 28.8594L96 38H90.8046L85.994 28.8594H91.0932Z" fill="white"/>
<path d="M77 25.3194H72.2153C72.1515 24.8314 72.0207 24.391 71.823 23.9981C71.6252 23.6052 71.3636 23.2693 71.0383 22.9905C70.7129 22.7117 70.327 22.4994 69.8804 22.3536C69.4402 22.2015 68.9522 22.1255 68.4163 22.1255C67.4657 22.1255 66.6459 22.3568 65.9569 22.8194C65.2743 23.282 64.748 23.9506 64.378 24.8251C64.0144 25.6996 63.8325 26.7579 63.8325 28C63.8325 29.2928 64.0175 30.3764 64.3876 31.251C64.764 32.1191 65.2903 32.775 65.9665 33.2186C66.6491 33.6559 67.4561 33.8745 68.3876 33.8745C68.9107 33.8745 69.386 33.808 69.8134 33.6749C70.2472 33.5418 70.6268 33.3485 70.9522 33.0951C71.2839 32.8352 71.555 32.5215 71.7656 32.154C71.9825 31.7801 72.1324 31.3587 72.2153 30.8897L77 30.9183C76.9171 31.7801 76.6651 32.6293 76.244 33.4658C75.8293 34.3023 75.2584 35.0659 74.5311 35.7567C73.8038 36.4411 72.9171 36.9861 71.8708 37.3916C70.8309 37.7972 69.638 38 68.2919 38C66.5183 38 64.9298 37.6134 63.5263 36.8403C62.1292 36.0608 61.0255 34.9265 60.2153 33.4373C59.4051 31.948 59 30.1356 59 28C59 25.858 59.4115 24.0425 60.2344 22.5532C61.0574 21.064 62.1707 19.9328 63.5742 19.1597C64.9777 18.3866 66.5502 18 68.2919 18C69.4785 18 70.5758 18.1648 71.5837 18.4943C72.5917 18.8175 73.4785 19.2928 74.244 19.9202C75.0096 20.5412 75.6316 21.3048 76.11 22.211C76.5885 23.1172 76.8852 24.1534 77 25.3194Z" fill="white"/>
<path d="M56 18V38H52.1446L44.6632 26.457H44.5439V38H40V18H43.9105L51.3092 29.5234H51.4653V18H56Z" fill="white"/>
<path d="M37 18V38H32V18H37Z" fill="white"/>
<rect y="12" width="26" height="26" rx="5" fill="#E9B245"/>
<rect x="25" width="12" height="12" rx="3" fill="#E9B245"/>
</svg>
